<svg xmlns="http://www.w3.org/2000/svg" width="27" height="32" viewBox="0 0 27 32"><path d="M9.291 1.12c-1.12.256-2.624 1.067-3.381 1.813-.373.363-.704.779-.736.917-.053.203-.171.288-.576.384-.8.192-1.472.555-2.112 1.141-1.184 1.077-1.301 2.155-.32 3.051.32.288.373.395.32.683-.032.213.053.672.224 1.227.149.48.277.896.277.928 0 .021-.181.043-.395.053h-.405l.395.181.405.181-.213.352a1.748 1.748 0 0 1-.555.533c-.565.309-.981.715-.907.907.032.096.267.32.523.491.725.512.736.533.619.757-.053.107-.203.235-.32.267s-.213.139-.213.224c0 .181.405.619.651.704.128.043.117.117-.053.437-.181.331-.192.405-.053.565.085.096.309.245.501.331.352.149.363.171.341.704a6.37 6.37 0 0 0-.011.747c.011.256.619.501 1.216.501.437 0 2.016-.363 3.083-.704.277-.096.608-.128.736-.096.309.107.789.896 1.131 1.909.277.8.299.992.299 2.517 0 1.493-.032 1.76-.299 2.72-.48 1.675-1.451 3.392-2.645 4.693-.235.256-.384.491-.331.523.064.032.565.117 1.131.192 2.208.277 3.339-.203 5.557-2.357 1.781-1.728 2.667-2.24 4.043-2.347l.853-.064-.459-.299c-2.592-1.717-4.139-5.461-3.488-8.501.256-1.184.651-1.728 2.219-3.072 1.557-1.333 2.187-2.325 2.496-3.947.299-1.568.117-3.851-.395-4.843l-.203-.405h.235c.384.011 1.067.363 1.44.768.512.533.885 1.536.885 2.368 0 .811-.192 1.408-1.013 3.104-.843 1.749-1.099 2.4-1.227 3.157-.448 2.549 1.589 4.725 4 4.256.8-.149 1.376-.48 1.963-1.12.363-.395.864-1.269.864-1.515 0-.032-.149.075-.331.224-.405.352-.715.427-1.397.363-.459-.053-.608-.117-.907-.448-.651-.704-.512-1.216.971-3.627.907-1.461 1.408-2.592 1.664-3.776.267-1.173.267-1.451 0-2.688-.48-2.261-1.696-3.925-3.488-4.768-.576-.277-.715-.299-2.005-.299-1.28 0-1.429.021-1.973.277-.32.16-.843.48-1.141.725l-.565.437-.832-.48c-1.44-.843-2.187-1.045-3.915-1.077-1.024-.021-1.707.011-2.176.117z" fill="#1970a9"/></svg>
